HIERARCHY
ROOT Hips
{
    OFFSET 0.000000 97.120003 0.000000
    CHANNELS 6 Xposition Yposition Zposition Zrotation Yrotation Xrotation
    JOINT RightHip
    {
        OFFSET -11.000000 0.000000 0.000000
        CHANNELS 6 Xposition Yposition Zposition Zrotation Yrotation Xrotation
        JOINT RightKnee
        {
            OFFSET 0.000000 -45.062000 0.000000
            CHANNELS 6 Xposition Yposition Zposition Zrotation Yrotation Xrotation
            JOINT RightAnkle
            {
                OFFSET 0.000000 -42.057999 0.000000
                CHANNELS 6 Xposition Yposition Zposition Zrotation Yrotation Xrotation
                End Site
                {
                    OFFSET 0.000000 -10.000000 15.120000
                }
            }
        }
    }
    JOINT LeftHip
    {
        OFFSET 11.000000 0.000000 0.000000
        CHANNELS 6 Xposition Yposition Zposition Zrotation Yrotation Xrotation
        JOINT LeftKnee
        {
            OFFSET 0.000000 -45.062000 0.000000
            CHANNELS 6 Xposition Yposition Zposition Zrotation Yrotation Xrotation
            JOINT LeftAnkle
            {
                OFFSET 0.000000 -42.057999 0.000000
                CHANNELS 6 Xposition Yposition Zposition Zrotation Yrotation Xrotation
                End Site
                {
                    OFFSET 0.000000 -10.000000 15.120000
                }
            }
        }
    }
    JOINT Chest
    {
        OFFSET 0.000000 8.120003 0.000000
        CHANNELS 6 Xposition Yposition Zposition Zrotation Yrotation Xrotation
        JOINT Chest2
        {
            OFFSET 0.000000 17.979996 0.000000
            CHANNELS 6 Xposition Yposition Zposition Zrotation Yrotation Xrotation
            JOINT Chest3
            {
                OFFSET 0.000000 12.759995 0.000000
                CHANNELS 6 Xposition Yposition Zposition Zrotation Yrotation Xrotation
                JOINT Neck
                {
                    OFFSET 0.000000 19.139999 0.000000
                    CHANNELS 6 Xposition Yposition Zposition Zrotation Yrotation Xrotation
                    JOINT Head
                    {
                        OFFSET 0.000000 8.500000 0.000000
                        CHANNELS 6 Xposition Yposition Zposition Zrotation Yrotation Xrotation
                        End Site
                        {
                            OFFSET 0.000000 19.119995 0.000000
                        }
                    }
                }
                JOINT RightCollar
                {
                    OFFSET -2.900000 13.339996 0.000000
                    CHANNELS 6 Xposition Yposition Zposition Zrotation Yrotation Xrotation
                    JOINT RightShoulder
                    {
                        OFFSET -16.100000 0.000000 0.000000
                        CHANNELS 6 Xposition Yposition Zposition Zrotation Yrotation Xrotation
                        JOINT RightElbow
                        {
                            OFFSET 0.000000 -28.000000 0.000000
                            CHANNELS 6 Xposition Yposition Zposition Zrotation Yrotation Xrotation
                            JOINT RightWrist
                            {
                                OFFSET -0.000002 -26.000000 0.000000
                                CHANNELS 6 Xposition Yposition Zposition Zrotation Yrotation Xrotation
                                JOINT RightFinger0
                                {
                                    OFFSET -0.200001 -2.616997 3.281000
                                    CHANNELS 6 Xposition Yposition Zposition Zrotation Yrotation Xrotation
                                    JOINT RightFinger01
                                    {
                                        OFFSET 0.000000 -3.872002 0.000000
                                        CHANNELS 6 Xposition Yposition Zposition Zrotation Yrotation Xrotation
                                        JOINT RightFinger02
                                        {
                                            OFFSET 0.000000 -2.690002 0.000000
                                            CHANNELS 6 Xposition Yposition Zposition Zrotation Yrotation Xrotation
                                            End Site
                                            {
                                                OFFSET 0.000000 -2.306000 0.000000
                                            }
                                        }
                                    }
                                }
                                JOINT RightFinger1
                                {
                                    OFFSET -0.439001 -8.874001 3.131000
                                    CHANNELS 6 Xposition Yposition Zposition Zrotation Yrotation Xrotation
                                    JOINT RightFinger11
                                    {
                                        OFFSET 0.000000 -3.806000 0.000000
                                        CHANNELS 6 Xposition Yposition Zposition Zrotation Yrotation Xrotation
                                        JOINT RightFinger12
                                        {
                                            OFFSET 0.000000 -2.157997 0.000000
                                            CHANNELS 6 Xposition Yposition Zposition Zrotation Yrotation Xrotation
                                            End Site
                                            {
                                                OFFSET 0.000000 -1.898003 0.000000
                                            }
                                        }
                                    }
                                }
                                JOINT RightFinger2
                                {
                                    OFFSET -0.456001 -8.996002 1.126000
                                    CHANNELS 6 Xposition Yposition Zposition Zrotation Yrotation Xrotation
                                    JOINT RightFinger21
                                    {
                                        OFFSET 0.000000 -4.153000 0.000000
                                        CHANNELS 6 Xposition Yposition Zposition Zrotation Yrotation Xrotation
                                        JOINT RightFinger22
                                        {
                                            OFFSET 0.000000 -2.602997 0.000000
                                            CHANNELS 6 Xposition Yposition Zposition Zrotation Yrotation Xrotation
                                            End Site
                                            {
                                                OFFSET 0.000000 -2.076004 0.000000
                                            }
                                        }
                                    }
                                }
                                JOINT RightFinger3
                                {
                                    OFFSET -0.543001 -8.411003 -0.640000
                                    CHANNELS 6 Xposition Yposition Zposition Zrotation Yrotation Xrotation
                                    JOINT RightFinger31
                                    {
                                        OFFSET 0.000000 -3.619003 0.000000
                                        CHANNELS 6 Xposition Yposition Zposition Zrotation Yrotation Xrotation
                                        JOINT RightFinger32
                                        {
                                            OFFSET 0.000000 -2.511002 0.000000
                                            CHANNELS 6 Xposition Yposition Zposition Zrotation Yrotation Xrotation
                                            End Site
                                            {
                                                OFFSET 0.000000 -1.952003 0.000000
                                            }
                                        }
                                    }
                                }
                                JOINT RightFinger4
                                {
                                    OFFSET -0.470999 -7.678001 -2.411000
                                    CHANNELS 6 Xposition Yposition Zposition Zrotation Yrotation Xrotation
                                    JOINT RightFinger41
                                    {
                                        OFFSET 0.000000 -2.898003 0.000000
                                        CHANNELS 6 Xposition Yposition Zposition Zrotation Yrotation Xrotation
                                        JOINT RightFinger42
                                        {
                                            OFFSET 0.000000 -1.831001 0.000000
                                            CHANNELS 6 Xposition Yposition Zposition Zrotation Yrotation Xrotation
                                            End Site
                                            {
                                                OFFSET 0.000000 -1.730003 0.000000
                                            }
                                        }
                                    }
                                }
                            }
                        }
                    }
                }
                JOINT LeftCollar
                {
                    OFFSET 2.900000 13.339996 0.000000
                    CHANNELS 6 Xposition Yposition Zposition Zrotation Yrotation Xrotation
                    JOINT LeftShoulder
                    {
                        OFFSET 16.100000 0.000000 0.000000
                        CHANNELS 6 Xposition Yposition Zposition Zrotation Yrotation Xrotation
                        JOINT LeftElbow
                        {
                            OFFSET 0.000006 -28.000000 0.000002
                            CHANNELS 6 Xposition Yposition Zposition Zrotation Yrotation Xrotation
                            JOINT LeftWrist
                            {
                                OFFSET 0.000004 -26.000000 0.000002
                                CHANNELS 6 Xposition Yposition Zposition Zrotation Yrotation Xrotation
                                JOINT LeftFinger0
                                {
                                    OFFSET 0.200001 -2.616997 3.281000
                                    CHANNELS 6 Xposition Yposition Zposition Zrotation Yrotation Xrotation
                                    JOINT LeftFinger01
                                    {
                                        OFFSET 0.000000 -3.872002 0.000000
                                        CHANNELS 6 Xposition Yposition Zposition Zrotation Yrotation Xrotation
                                        JOINT LeftFinger02
                                        {
                                            OFFSET 0.000000 -2.690002 0.000000
                                            CHANNELS 6 Xposition Yposition Zposition Zrotation Yrotation Xrotation
                                            End Site
                                            {
                                                OFFSET 0.000000 -2.306000 0.000000
                                            }
                                        }
                                    }
                                }
                                JOINT LeftFinger1
                                {
                                    OFFSET 0.439003 -8.874001 3.131001
                                    CHANNELS 6 Xposition Yposition Zposition Zrotation Yrotation Xrotation
                                    JOINT LeftFinger11
                                    {
                                        OFFSET 0.000000 -3.806000 0.000000
                                        CHANNELS 6 Xposition Yposition Zposition Zrotation Yrotation Xrotation
                                        JOINT LeftFinger12
                                        {
                                            OFFSET 0.000000 -2.157997 0.000000
                                            CHANNELS 6 Xposition Yposition Zposition Zrotation Yrotation Xrotation
                                            End Site
                                            {
                                                OFFSET 0.000000 -1.898003 0.000000
                                            }
                                        }
                                    }
                                }
                                JOINT LeftFinger2
                                {
                                    OFFSET 0.456001 -8.996002 1.126001
                                    CHANNELS 6 Xposition Yposition Zposition Zrotation Yrotation Xrotation
                                    JOINT LeftFinger21
                                    {
                                        OFFSET 0.000002 -4.153000 0.000000
                                        CHANNELS 6 Xposition Yposition Zposition Zrotation Yrotation Xrotation
                                        JOINT LeftFinger22
                                        {
                                            OFFSET 0.000000 -2.602997 0.000000
                                            CHANNELS 6 Xposition Yposition Zposition Zrotation Yrotation Xrotation
                                            End Site
                                            {
                                                OFFSET 0.000000 -2.075996 0.000000
                                            }
                                        }
                                    }
                                }
                                JOINT LeftFinger3
                                {
                                    OFFSET 0.543001 -8.411003 -0.639999
                                    CHANNELS 6 Xposition Yposition Zposition Zrotation Yrotation Xrotation
                                    JOINT LeftFinger31
                                    {
                                        OFFSET 0.000000 -3.619003 0.000000
                                        CHANNELS 6 Xposition Yposition Zposition Zrotation Yrotation Xrotation
                                        JOINT LeftFinger32
                                        {
                                            OFFSET 0.000000 -2.511002 0.000000
                                            CHANNELS 6 Xposition Yposition Zposition Zrotation Yrotation Xrotation
                                            End Site
                                            {
                                                OFFSET 0.000000 -1.952003 0.000000
                                            }
                                        }
                                    }
                                }
                                JOINT LeftFinger4
                                {
                                    OFFSET 0.471003 -7.677994 -2.410999
                                    CHANNELS 6 Xposition Yposition Zposition Zrotation Yrotation Xrotation
                                    JOINT LeftFinger41
                                    {
                                        OFFSET 0.000000 -2.898003 0.000000
                                        CHANNELS 6 Xposition Yposition Zposition Zrotation Yrotation Xrotation
                                        JOINT LeftFinger42
                                        {
                                            OFFSET 0.000000 -1.831001 0.000000
                                            CHANNELS 6 Xposition Yposition Zposition Zrotation Yrotation Xrotation
                                            End Site
                                            {
                                                OFFSET 0.000000 -1.730003 0.000000
                                            }
                                        }
                                    }
                                }
                            }
                        }
                    }
                }
            }
        }
    }
}
MOTION
Frames: 3
Frame Time: 0.033333
1.158557 97.758324 -1.161354 178.249832 58.388596 -177.414825 -10.565689 -0.041328 -0.020279 178.832993 177.515335 176.255661 0.069960 -45.059437 0.001659 0.866146 -6.365334 5.429843 0.390593 -42.104805 -0.044814 1.495022 12.024613 -2.508618 10.546774 0.027916 0.018677 0.081310 6.894321 -4.503520 -0.074485 -45.064400 -0.003968 1.431387 4.736881 5.453388 -0.412396 -42.018433 -0.070101 177.670471 -169.125168 179.998550 0.009294 8.123863 0.010909 179.665970 178.063583 175.263519 0.005346 17.982330 0.006848 179.554062 178.072388 175.354675 0.002335 12.762802 -0.001897 178.706482 170.944122 176.641861 0.006538 19.140457 -0.002581 0.771295 -0.004447 0.329921 -0.000943 8.500168 0.001579 1.118360 -12.556483 0.685087 -2.899495 13.339706 0.001775 177.382660 -163.301102 -176.774277 -16.099512 0.000412 -0.000043 178.905090 -174.863968 173.864212 0.000719 -27.999649 0.001387 177.237091 -161.378525 164.164276 -0.004940 -25.997253 0.003745 152.105820 157.215637 166.681320 -2.617058 0.199875 3.281011 30.237562 16.451862 90.872917 -3.683372 -0.986954 0.672389 176.664825 -173.734879 -178.921661 -2.558762 -0.685623 0.467094 176.910934 -179.844864 179.477829 -8.874611 0.438492 3.130711 57.238167 8.252164 12.570167 -3.805504 0.000000 0.000000 46.085705 0.000004 -0.000002 -2.157639 0.000000 0.000000 34.564289 -0.000009 -0.000006 -8.996246 0.455551 1.125693 43.619526 0.001385 -0.000976 -4.152588 0.000000 0.000000 54.445126 -0.000009 -0.000012 -2.603119 0.000000 0.000000 38.309265 0.000001 0.000008 -8.411316 0.542313 -0.639158 32.662277 -8.442473 -5.378440 -3.619415 0.000000 0.000000 48.395874 0.000017 0.000004 -2.510925 0.000000 0.000000 32.231613 -0.000002 -0.000004 -7.677643 0.470261 -2.410206 46.755299 -14.000711 -14.427212 -2.898293 0.000000 0.000000 67.459831 -0.000010 -0.000004 -1.831474 0.000000 0.000000 44.928196 0.000006 0.000003 2.900532 13.338974 0.000856 174.230988 -161.910324 -178.544525 16.099218 -0.000687 -0.000066 35.060719 41.826984 16.809538 -0.001606 -28.000244 -0.002218 168.785614 -159.272522 162.029251 0.001080 -25.998833 -0.000147 24.948429 9.454448 4.180887 2.617058 0.199875 3.281011 149.559586 -162.425842 -88.435059 3.683372 -0.986954 0.672390 5.850514 6.375176 0.638793 2.558762 -0.685623 0.467094 5.862781 0.318289 -0.983553 8.874611 0.438492 3.130711 135.969406 -169.094376 -169.632462 3.805504 0.000000 0.000000 144.788315 -179.999985 179.999985 2.157639 0.000000 0.000000 154.740677 -179.999985 -179.999985 8.996246 0.455551 1.125693 122.879349 179.999878 -179.995422 4.152588 0.000000 0.000000 122.880745 -179.999985 -179.999985 2.603119 0.000000 0.000000 137.160538 -179.999985 -179.999985 8.411316 0.542313 -0.639158 117.671318 175.318039 171.158142 3.619415 0.000000 0.000000 118.034683 179.999985 -179.999985 2.510925 0.000000 0.000000 133.526001 179.999985 -179.999985 7.677643 0.470261 -2.410206 91.969116 179.280579 160.016220 2.898293 0.000000 0.000000 70.000015 179.999985 -179.999985 1.831474 0.000000 0.000000 99.999969 -179.999985 -179.999985 
0.923421 97.744125 -1.307204 178.369110 58.406757 -177.328445 -10.551137 -0.051384 -0.026214 178.732574 177.493469 176.224548 0.073597 -45.061222 -0.003062 0.836470 -6.442209 5.379429 0.402098 -42.114162 -0.045509 1.607644 12.095798 -2.566760 10.551284 0.038780 0.021173 179.990601 173.150848 175.495331 -0.074912 -45.062584 -0.006618 1.399229 4.824817 5.351924 -0.406940 -42.009735 -0.067431 177.812057 -169.100006 -179.988739 0.004206 8.123184 0.009573 179.659195 178.061493 175.250366 0.002049 17.981750 0.005989 179.543243 178.070633 175.341751 0.000124 12.762115 -0.001083 178.689667 170.933990 176.633743 0.008091 19.140366 -0.000634 0.952288 -0.005026 0.302687 -0.001568 8.500061 0.000852 1.430436 -12.343633 0.627792 -2.898859 13.340164 0.002127 177.402939 -163.247910 -176.781006 -16.099865 -0.000168 -0.001940 178.932037 -174.804840 173.880280 -0.001308 -27.999496 -0.000466 177.239700 -161.410599 164.233063 -0.004955 -25.996368 0.008459 152.093414 157.198959 166.719009 -2.617058 0.199875 3.281011 30.228956 16.434971 90.862358 -3.683372 -0.986954 0.672389 176.700241 -173.717072 -178.910187 -2.558762 -0.685623 0.467094 176.947983 -179.846893 179.484024 -8.874611 0.438492 3.130711 57.199749 8.258917 12.564342 -3.805504 0.000000 0.000000 46.058578 0.000006 -0.000005 -2.157639 0.000000 0.000000 34.543957 -0.000011 0.000000 -8.996246 0.455551 1.125693 43.571758 0.000651 -0.001967 -4.152588 0.000000 0.000000 54.444679 -0.000001 0.000002 -2.603119 0.000000 0.000000 38.298096 -0.000000 0.000011 -8.411316 0.542313 -0.639158 32.644474 -8.444527 -5.377485 -3.619415 0.000000 0.000000 48.377457 0.000002 -0.000005 -2.510925 0.000000 0.000000 32.219357 0.000018 0.000011 -7.677643 0.470261 -2.410206 46.769348 -13.996529 -14.432944 -2.898293 0.000000 0.000000 67.488922 0.000008 0.000000 -1.831474 0.000000 0.000000 44.947643 -0.000016 -0.000006 2.898350 13.339355 0.001333 174.204102 -161.870041 -178.519562 16.099272 -0.000961 0.000030 35.186459 41.905689 16.853346 -0.000696 -27.999947 -0.000015 168.819992 -159.275543 162.093033 0.004080 -25.997688 0.000539 24.967991 9.485866 4.233944 2.617058 0.199875 3.281011 149.566162 -162.433487 -88.441544 3.683372 -0.986954 0.672390 5.838015 6.416116 0.652222 2.558762 -0.685623 0.467094 5.847640 0.317350 -0.981067 8.874611 0.438492 3.130711 136.006058 -169.089905 -169.641617 3.805504 0.000000 0.000000 144.813980 179.999985 179.999985 2.157639 0.000000 0.000000 154.764648 179.999985 -179.999985 8.996246 0.455551 1.125693 122.919769 179.999466 -179.998734 4.152588 0.000000 0.000000 122.916565 -179.999985 -179.999985 2.603119 0.000000 0.000000 137.187439 179.999985 -179.999985 8.411316 0.542313 -0.639158 117.707764 175.312958 171.157455 3.619415 0.000000 0.000000 118.067062 -179.999985 179.999985 2.510925 0.000000 0.000000 133.550293 -179.999985 179.999985 7.677643 0.470261 -2.410206 92.062569 179.249603 160.014297 2.898293 0.000000 0.000000 70.000015 179.999985 -179.999985 1.831474 0.000000 0.000000 100.000008 -179.999985 -179.999985 
0.686347 97.733215 -1.452396 178.546616 58.466740 -177.215561 -10.535055 -0.063438 -0.038742 178.647415 177.507751 176.170670 0.074499 -45.063232 -0.006022 0.833756 -6.393980 5.378322 0.417947 -42.126202 -0.057140 1.727858 12.122246 -2.595711 10.549398 0.047737 0.019291 179.946732 173.155304 175.498932 -0.072776 -45.061119 -0.007174 1.342106 4.785456 5.289850 -0.408525 -42.001392 -0.070270 177.959274 -169.199203 179.988861 0.001400 8.123604 0.008777 179.662140 178.054001 175.250626 -0.001522 17.982101 0.006410 179.548569 178.062973 175.342026 -0.003494 12.762169 0.002788 178.693878 170.899094 176.633118 0.009353 19.140457 0.000905 1.133147 -0.004902 0.248473 -0.002085 8.500061 -0.000399 1.753935 -12.088272 0.514630 -2.900466 13.340378 0.002290 177.398865 -163.215607 -176.765671 -16.100109 0.000076 0.000216 178.994675 -174.802826 173.893768 -0.001108 -27.999336 0.001275 177.202118 -161.368698 164.353455 -0.010309 -25.995872 0.001941 152.163208 157.177505 166.785645 -2.617058 0.199875 3.281011 30.228050 16.416780 90.861412 -3.683372 -0.986954 0.672389 176.733887 -173.679764 -178.893677 -2.558754 -0.685623 0.467094 176.983566 -179.848846 179.489990 -8.874611 0.438492 3.130711 57.171532 8.259041 12.566175 -3.805504 0.000000 0.000000 46.035007 -0.000004 0.000002 -2.157639 0.000000 0.000000 34.526249 0.000004 0.000009 -8.996246 0.455551 1.125693 43.483170 -0.003927 0.005188 -4.152588 0.000000 0.000000 54.443691 -0.000002 -0.000003 -2.603119 0.000000 0.000000 38.274780 -0.000000 0.000000 -8.411316 0.542313 -0.639158 32.610729 -8.450657 -5.364819 -3.619415 0.000000 0.000000 48.329865 -0.000001 0.000003 -2.510925 0.000000 0.000000 32.187664 0.000008 0.000008 -7.677643 0.470261 -2.410206 46.777790 -13.998816 -14.428475 -2.898293 0.000000 0.000000 67.505127 0.000015 0.000002 -1.831474 0.000000 0.000000 44.958427 -0.000001 -0.000008 2.898251 13.338593 0.000717 174.180786 -161.834396 -178.491531 16.100069 -0.000916 0.000010 35.245243 41.979362 16.864908 -0.001078 -28.000084 0.000947 168.881927 -159.331345 162.173065 0.005882 -25.997368 -0.000990 24.886356 9.532817 4.212020 2.617058 0.199875 3.281011 149.567566 -162.453812 -88.455688 3.683372 -0.986954 0.672390 5.797094 6.416778 0.660021 2.558754 -0.685623 0.467094 5.799854 0.314321 -0.973177 8.874611 0.438492 3.130711 135.996124 -169.092636 -169.643387 3.805504 0.000000 0.000000 144.807709 -179.999985 -179.999985 2.157639 0.000000 0.000000 154.758804 179.999985 -179.999985 8.996246 0.455551 1.125693 122.927231 179.998856 179.997864 4.152588 0.000000 0.000000 122.926849 179.999985 -179.999985 2.603119 0.000000 0.000000 137.195145 -179.999985 -179.999985 8.411316 0.542313 -0.639158 117.732193 175.308380 171.156250 3.619415 0.000000 0.000000 118.094856 179.999985 179.999985 2.510925 0.000000 0.000000 133.571152 -179.999985 -179.999985 7.677643 0.470261 -2.410206 92.331154 179.152069 160.014847 2.898293 0.000000 0.000000 70.000038 -179.999985 -179.999985 1.831474 0.000000 0.000000 100.000015 -179.999985 -179.999985 
